<svg class="w-5 h-5" version="1.1" fill="#fff" viewBox="0 0 458.62 458.62" xml:space="preserve"
            xmlns="http://www.w3.org/2000/svg">
            <path
              d="m339.59 314.53c-14.215 0-27.456 4.133-38.621 11.239l-112.68-78.67c1.809-6.315 2.798-12.976 2.798-19.871 0-6.896-0.989-13.557-2.798-19.871l109.64-76.547c11.764 8.356 26.133 13.286 41.662 13.286 39.79 0 72.047-32.257 72.047-72.047s-32.256-72.048-72.046-72.048-72.047 32.257-72.047 72.047c0 5.255 0.578 10.373 1.646 15.308l-112.42 78.491c-10.974-6.759-23.892-10.666-37.727-10.666-39.79 0-72.047 32.257-72.047 72.047s32.256 72.047 72.047 72.047c13.834 0 26.753-3.907 37.727-10.666l113.29 79.097c-1.629 6.017-2.514 12.34-2.514 18.872 0 39.79 32.257 72.047 72.047 72.047s72.047-32.257 72.047-72.047-32.257-72.048-72.047-72.048z" />
          </svg>